<svg width="98" height="98" viewBox="0 0 51 101" fill="none" xmlns="http://www.w3.org/2000/svg">
<path d="M7.4348 100.723C7.17879 100.723 6.92277 100.666 6.68882 100.547C5.98257 100.194 5.62945 99.3902 5.82367 98.6222L17.0045 55.5228H2.42971C1.78085 55.5228 1.19372 55.1521 0.920148 54.5826C0.646473 53.9956 0.725924 53.307 1.13644 52.817L42.9645 0.907081C43.4545 0.297943 44.3196 0.103718 45.0259 0.456843C45.7321 0.809968 46.0852 1.61329 45.891 2.38135L34.7102 45.4807H49.285C49.9338 45.4807 50.521 45.8514 50.7945 46.4209C51.0682 47.0079 50.9888 47.6965 50.5782 48.1865L8.73322 100.096C8.41982 100.507 7.92985 100.723 7.43993 100.723H7.4348Z" fill="#FCBF49"/>
</svg>
